***** Angels.Fall.2007.DVDRiP.XviD.OPTIONAL-MULTISUB-Zen_Bud *****

Format                           : AVI
File size                        : 706 MiB
Duration                         : 1h 31mn
Overall bit rate                 : 1 079 Kbps

Video

Format                           : MPEG-4 Visual
Codec ID/Hint                    : XviD
Duration                         : 1h 31mn
Bit rate                         : 938 Kbps
Width                            : 720 pixels
Height                           : 572 pixels
Display aspect ratio             : 16:9
Stream size                      : 614 MiB (87%)
Writing library                  : XviD 1.1.2 (UTC 2006-11-01)

Audio

Format                           : MPEG Audio
Codec ID/Hint                    : MP3
Duration                         : 1h 31mn
Bit rate                         : 128 Kbps
Channel(s)                       : 2 channels
Sampling rate                    : 48.0 KHz
Stream size                      : 83.7 MiB (12%)
Writing library                  : LAME3.98
Language                         : English

Text #1
Language                         : English

Text #2
Language                         : Czech

Text #3
Language                         : Polish

Text #4
Language                         : Dutch

Text #5
Language                         : Arabic

Text #6
Language                         : Bulgarian

Text #7
Language                         : Croatian

Text #8
Language                         : Danish

Text #9
Language                         : Finnish

Text #10
Language                         : Norwegian

Text #11
Language                         : Portuguese

Text #12
Language                         : Slovak

Text #13
Language                         : Slovenian

Text #14
Language                         : Swedish

Text #15
Language                         : Turkish

Text #16
Language                         : English


A chef moves to a small town in Wyoming after her Botson restaurant is shut down because of a fatal shooting.